<svg width="43" height="45" viewBox="0 0 43 45" fill="none" xmlns="http://www.w3.org/2000/svg">
<rect x="43" y="11" width="3" height="20" transform="rotate(90 43 11)" fill="#D9D9D9"/>
<rect x="17" y="24" width="3" height="20" fill="#D9D9D9"/>
<rect x="22" y="24" width="3" height="20" fill="#D9D9D9"/>
<rect x="20" y="11" width="3" height="20" transform="rotate(90 20 11)" fill="#D9D9D9"/>
<path d="M16 23.5L18.1539 28.9284L5.29813 44.2493L3 42.3209L16 23.5Z" fill="#D9D9D9"/>
<rect x="4" y="4.54414" width="3" height="20" transform="rotate(-58 4 4.54414)" fill="#D9D9D9"/>
<path d="M24 28.9284L27 23.5L39.1539 42.3209L36.8558 44.2493L24 28.9284Z" fill="#D9D9D9"/>
<rect x="36.961" y="2" width="3" height="20" transform="rotate(58 36.961 2)" fill="#D9D9D9"/>
<circle cx="21.5" cy="4.5" r="4.5" fill="#D9D9D9"/>
<rect x="16" y="11" width="11" height="21" fill="#D9D9D9"/>
</svg>
