<svg width="61" height="61" viewBox="0 0 61 61" fill="none" xmlns="http://www.w3.org/2000/svg">
<path d="M25 40H26V52H16L15.1885 51.1885L25 39.4941V40ZM31 52H29V40H31V52ZM44.9492 51.1689L44 52H34V40H35.5771L44.9492 51.1689ZM52 45L47.3467 49.0713L36 31.5V22H52V45ZM25 31.5L12.9824 48.9824L9 45V22H25V31.5ZM27.6729 9C26.6528 9.82496 26 11.0859 26 12.5C26 14.9853 28.0147 17 30.5 17C32.9853 17 35 14.9853 35 12.5C35 11.0859 34.3472 9.82496 33.3271 9H45L46.5225 10.5225L32.958 19H27.9922L14.457 10.542L16 9H27.6729ZM22.332 19H9V16L12.2803 12.7188L22.332 19ZM52 16V19H38.6182L48.6992 12.6992L52 16Z" fill="#E8DC9A"/>
<circle cx="30.5" cy="30.5" r="29.5" stroke="#E8DC9A" stroke-opacity="0.6" stroke-width="2"/>
</svg>
