<svg width="64" height="44" viewBox="0 0 64 44" fill="none" xmlns="http://www.w3.org/2000/svg">
<rect x="16" y="15" width="4" height="14" fill="url(#paint0_linear_10_61)"/>
<rect x="44" y="15" width="4" height="14" fill="url(#paint1_linear_10_61)"/>
<rect x="23.8284" y="31.7279" width="4" height="25.8305" transform="rotate(-135 23.8284 31.7279)" fill="url(#paint2_linear_10_61)"/>
<rect x="50.8284" y="32.0934" width="4" height="17.3515" transform="rotate(-135 50.8284 32.0934)" fill="url(#paint3_linear_10_61)"/>
<rect x="12.2694" y="12" width="4" height="17.3515" transform="rotate(45 12.2694 12)" fill="url(#paint4_linear_10_61)"/>
<circle cx="18" cy="36" r="8" fill="#D9D9D9" fill-opacity="0.8"/>
<circle cx="46" cy="8" r="8" fill="#D9D9D9" fill-opacity="0.8"/>
<path d="M18 0C22.4183 0 26 3.58172 26 8C26 12.4183 22.4183 16 18 16C13.5817 16 10 12.4183 10 8C10 3.58172 13.5817 0 18 0ZM18 4C15.7909 4 14 5.79086 14 8C14 10.2091 15.7909 12 18 12C20.2091 12 22 10.2091 22 8C22 5.79086 20.2091 4 18 4Z" fill="#D9D9D9" fill-opacity="0.8"/>
<path d="M46 28C50.4183 28 54 31.5817 54 36C54 40.4183 50.4183 44 46 44C41.5817 44 38 40.4183 38 36C38 31.5817 41.5817 28 46 28ZM46 32C43.7909 32 42 33.7909 42 36C42 38.2091 43.7909 40 46 40C48.2091 40 50 38.2091 50 36C50 33.7909 48.2091 32 46 32Z" fill="#D9D9D9" fill-opacity="0.8"/>
<defs>
<linearGradient id="paint0_linear_10_61" x1="18" y1="15" x2="18" y2="29" gradientUnits="userSpaceOnUse">
<stop stop-color="#D9D9D9" stop-opacity="0.9"/>
<stop offset="1" stop-color="#737373" stop-opacity="0.6"/>
</linearGradient>
<linearGradient id="paint1_linear_10_61" x1="46" y1="15" x2="46" y2="29" gradientUnits="userSpaceOnUse">
<stop stop-color="#D9D9D9" stop-opacity="0.9"/>
<stop offset="1" stop-color="#737373" stop-opacity="0.6"/>
</linearGradient>
<linearGradient id="paint2_linear_10_61" x1="25.8284" y1="31.7279" x2="25.8284" y2="57.5585" gradientUnits="userSpaceOnUse">
<stop stop-color="#D9D9D9" stop-opacity="0.9"/>
<stop offset="1" stop-color="#737373" stop-opacity="0.6"/>
</linearGradient>
<linearGradient id="paint3_linear_10_61" x1="52.8284" y1="32.0934" x2="52.8284" y2="49.4448" gradientUnits="userSpaceOnUse">
<stop stop-color="#D9D9D9" stop-opacity="0.9"/>
<stop offset="0.697115" stop-color="#737373" stop-opacity="0.6"/>
<stop offset="0.9999" stop-color="#A6A6A6" stop-opacity="0"/>
</linearGradient>
<linearGradient id="paint4_linear_10_61" x1="14.2694" y1="12" x2="14.2694" y2="29.3515" gradientUnits="userSpaceOnUse">
<stop stop-color="#D9D9D9" stop-opacity="0.9"/>
<stop offset="0.697115" stop-color="#737373" stop-opacity="0.6"/>
<stop offset="0.9999" stop-color="#A6A6A6" stop-opacity="0"/>
</linearGradient>
</defs>
</svg>
