<svg width="53" height="53" viewBox="0 0 53 53" fill="none" xmlns="http://www.w3.org/2000/svg">
<path d="M6.67918 13.362L13.8564 6.18481L43.3432 35.6716L36.1659 42.8488L6.67918 13.362Z" fill="#D9D9D9"/>
<path d="M41.0885 43.3523L44.4229 40.0179L52.8483 48.4433L49.5138 51.7777L41.0885 43.3523Z" fill="#D9D9D9"/>
<path d="M4.00002 4L6.67918 13.362L10.2678 9.77342L13.8564 6.18481L4.00002 4Z" fill="#D9D9D9"/>
<path d="M8.94137 39.7565L12.1574 43.2052L3.4431 51.3314L0.227079 47.8827L8.94137 39.7565Z" fill="#D9D9D9" fill-opacity="0.4"/>
<path d="M28.8527 21.6011L21.9198 28.0652L19.6951 25.6795L17.8689 27.3824L20.0936 29.7682L14.2969 35.1756L16.6478 37.6967L22.4446 32.2893L24.7899 34.8043L16.66 42.3865L9.73709 34.9626L26.6262 19.2124L28.8527 21.6011ZM47.1584 13.9462L26.616 33.1013L24.2708 30.5863L31.2037 24.1222L33.533 26.6191L35.3591 24.9171L33.0299 22.4193L42.6778 13.4233C43.6208 12.544 44.1881 11.3341 44.2605 10.0468L44.2834 9.64211L43.8932 9.6236C42.5524 9.56425 41.2438 10.0474 40.2622 10.9625L30.6789 19.8982L28.4523 17.5104L40.2355 6.52238L49.6846 4.17201L47.1584 13.9462Z" fill="#D9D9D9" fill-opacity="0.4"/>
</svg>
