<svg width="41" height="55" viewBox="0 0 41 55" fill="none" xmlns="http://www.w3.org/2000/svg">
<path d="M28.6269 9.89941C30.189 11.4615 30.189 13.9945 28.6269 15.5566L21.5566 22.627C19.9945 24.1891 17.4615 24.1891 15.8994 22.627L14.6963 21.4238L15.4053 19.3457L17.1767 17.5732L20.7207 14.0293L26.7383 8.01074L28.6269 9.89941ZM24.3076 5.58008L24.0957 6.77246L22.3232 8.54395L18.7793 12.0879L12.0693 18.7969L8.82811 15.5566C7.26608 13.9946 7.26614 11.4615 8.82811 9.89941L18.7275 0L24.3076 5.58008Z" fill="#D9D9D9"/>
<path d="M16.1714 19.0298C17.7335 17.4677 20.2666 17.4677 21.8287 19.0298L35.9703 33.1714C37.5324 34.7335 37.5324 37.2665 35.9703 38.8286L21.8287 52.9702C20.2666 54.5323 17.7335 54.5323 16.1714 52.9702L2.02983 38.8286C0.467729 37.2665 0.467729 34.7335 2.02983 33.1714L16.1714 19.0298ZM18.8999 25.9995C18.8999 25.9995 18.674 31.3251 16.4996 33.4995C14.3251 35.674 8.99955 35.8999 8.99955 35.8999C8.99955 35.8999 14.1597 36.3599 16.2994 38.4995C18.439 40.6392 18.8999 45.7993 18.8999 45.7993C18.8999 45.7993 19.3599 40.6392 21.4996 38.4995C23.6392 36.3599 28.7994 35.8999 28.7994 35.8999C28.7994 35.8999 24.6338 34.7731 22.6656 32.9995C20.3596 30.9215 18.8999 25.9995 18.8999 25.9995Z" fill="#D9D9D9"/>
<path d="M31 48.5502C31 48.5502 33.4478 48.4468 34.4473 47.4473C35.4468 46.4478 35.5502 44 35.5502 44C35.5502 44 36.2213 46.2624 37.2813 47.2175C38.186 48.0327 40.1005 48.5502 40.1005 48.5502C40.1005 48.5502 37.729 48.7621 36.7456 49.7455C35.7621 50.729 35.5502 53.1005 35.5502 53.1005C35.5502 53.1005 35.3384 50.729 34.3549 49.7455C33.3715 48.7621 31 48.5502 31 48.5502Z" fill="#D9D9D9"/>
</svg>
