<svg width="49" height="63" viewBox="0 0 49 63" fill="none" xmlns="http://www.w3.org/2000/svg">
<path d="M32.2549 0.562256C37.5296 1.19367 41.9298 5.29759 42.7041 10.8064L47.9922 48.4373C48.9143 55 44.3421 61.0676 37.7793 61.99L36.3525 62.1902C39.1945 59.9484 40.9947 56.4538 40.9268 52.5554L40.2129 11.6521C40.1231 6.51745 36.8201 2.19537 32.2549 0.562256Z" fill="#B9BBBC" fill-opacity="0.5"/>
<path d="M27 0.999756C33.6274 0.999756 39 6.37234 39 12.9998V50.9998C39 57.6271 33.6274 62.9998 27 62.9998H12C5.3726 62.9998 3.27935e-05 57.6271 0 50.9998V12.9998C0 6.37234 5.37258 0.999756 12 0.999756H27ZM12 6.99976C7.5818 6.99976 4.00013 10.5816 4 14.9998V48.9998C4 53.418 7.58172 56.9998 12 56.9998H27C31.4183 56.9998 35 53.418 35 48.9998V14.9998C34.9999 10.5816 31.4182 6.99976 27 6.99976H12Z" fill="#B9BBBC"/>
<rect x="16" y="10" width="7" height="7" fill="#B9BBBC" fill-opacity="0.8"/>
<rect x="10" y="20" width="20" height="6" fill="#B9BBBC" fill-opacity="0.5"/>
<rect x="10" y="30" width="20" height="4" fill="#B9BBBC" fill-opacity="0.5"/>
</svg>
