<svg width="40" height="39" viewBox="0 0 40 39" fill="none" xmlns="http://www.w3.org/2000/svg">
<g filter="url(#filter0_f_10_6)">
<rect x="7.42896" y="19.429" width="18" height="18" transform="rotate(-45 7.42896 19.429)" fill="#AE1C3B" fill-opacity="0.9"/>
</g>
<rect x="10.7071" y="19" width="13.4957" height="13.4957" transform="rotate(-45 10.7071 19)" stroke="#E7E9EB"/>
<path d="M21.2841 14.3636L21.1364 22.6534H19.5625L19.4148 14.3636H21.2841ZM20.3523 26.108C20.0379 26.108 19.7689 25.9981 19.5455 25.7784C19.322 25.5549 19.2121 25.286 19.2159 24.9716C19.2121 24.661 19.322 24.3958 19.5455 24.1761C19.7689 23.9527 20.0379 23.8409 20.3523 23.8409C20.6591 23.8409 20.9242 23.9527 21.1477 24.1761C21.3712 24.3958 21.4848 24.661 21.4886 24.9716C21.4848 25.1799 21.4299 25.3712 21.3239 25.5455C21.2216 25.7159 21.0852 25.8523 20.9148 25.9545C20.7443 26.0568 20.5568 26.108 20.3523 26.108Z" fill="white"/>
<defs>
<filter id="filter0_f_10_6" x="0.928955" y="0.20105" width="38.4558" height="38.4558" filterUnits="userSpaceOnUse" color-interpolation-filters="sRGB">
<feFlood flood-opacity="0" result="BackgroundImageFix"/>
<feBlend mode="normal" in="SourceGraphic" in2="BackgroundImageFix" result="shape"/>
<feGaussianBlur stdDeviation="3.25" result="effect1_foregroundBlur_10_6"/>
</filter>
</defs>
</svg>
