<svg width="74" height="65" viewBox="0 0 74 65" fill="none" xmlns="http://www.w3.org/2000/svg">
<path d="M29 37.5C33.7967 33.1621 37 23 37 23C37 23 41.9695 33.223 47.5 37.5C52.9785 41.7368 64 44 64 44C64 44 53.0244 47.0751 47.5 51.5C42.2871 55.6754 37 65 37 65C37 65 33.4808 55.6807 29 51.5C23.1674 46.0581 10 44 10 44C10 44 23.1836 42.7601 29 37.5Z" fill="#B9BBBC"/>
<path d="M16.8338 30.1069C14.1004 30.5057 10.5339 33.3534 10.5339 33.3534C10.5339 33.3534 11.2291 28.5375 10.3013 25.7007C9.38214 22.8905 5.99999 18.4307 5.99999 18.4307C5.99999 18.4307 10.6453 20.9829 13.6564 20.7265C16.4978 20.4845 20.5994 18.4307 20.5994 18.4307C20.5994 18.4307 19.6086 22.5801 20.1889 25.1327C20.9443 28.4554 25.1006 32.3228 25.1006 32.3228C25.1006 32.3228 20.1482 29.6233 16.8338 30.1069Z" fill="#B9BBBC"/>
<path d="M54.5 24.5C55.0601 21.7951 53 17.5 53 17.5C53 17.5 56.0301 21.0134 59.0133 21.1118C61.9683 21.2092 69 18.5 69 18.5C69 18.5 63.1116 23.5827 62.3226 26.5C61.5782 29.2528 62.3226 33.2753 62.3226 33.2753C62.3226 33.2753 59.5971 29.8277 57 29.5C53.6193 29.0734 47.5 32.5 47.5 32.5C47.5 32.5 53.8208 27.7799 54.5 24.5Z" fill="#B9BBBC"/>
<path d="M45.5 14.9999C44.8645 12.3117 42 10.5 42 10.5C42 10.5 45.2548 11.1715 48 9.99992C50.7194 8.83937 53.3552 4.95169 53.3552 4.95169C53.3552 4.95169 50.4821 10.5227 51 13.5C51.4887 16.3095 55 19.9925 55 19.9925C55 19.9925 50.9923 18.1995 48.5 19C45.2558 20.0421 39.7862 26.7263 39.7862 26.7263C39.7862 26.7263 46.2706 18.2596 45.5 14.9999Z" fill="#B9BBBC"/>
<path d="M23.3492 18.1133C20.6899 17.3659 18.4138 20.8028 18.4138 20.8028C18.4138 20.8028 21.6938 15.969 22 13C22.3033 10.0589 20.3415 5.32619 20.3415 5.32619C20.3415 5.32619 23.1449 10.2738 26 11.2643C28.6942 12.199 33.6787 11.2643 33.6787 11.2643C33.6787 11.2643 28.9456 12.3658 28.4374 14.9338C27.776 18.2765 30 23.5 30 23.5C30 23.5 26.5737 19.0196 23.3492 18.1133Z" fill="#B9BBBC"/>
<path d="M33.0413 12.8627C31.112 10.8858 27.4224 12.7242 27.4224 12.7242C27.4224 12.7242 32.6798 10.178 34.4295 7.75986C36.1627 5.36449 36.8301 0.284892 36.8301 0.284892C36.8301 0.284892 36.7841 5.97132 38.7615 8.25669C40.6273 10.4132 45.4114 12.0961 45.4114 12.0961C45.4114 12.0961 40.7616 10.6834 39.0376 12.6533C36.7935 15.2174 36.1077 20.8531 36.1077 20.8531C36.1077 20.8531 35.3807 15.2599 33.0413 12.8627Z" fill="#B9BBBC"/>
</svg>
