<svg width="53" height="53" viewBox="0 0 53 53" fill="none" xmlns="http://www.w3.org/2000/svg">
<path d="M6.67917 13.362L13.8564 6.18481L43.3431 35.6716L36.1659 42.8488L6.67917 13.362Z" fill="#D9D9D9"/>
<path d="M41.0884 43.3523L44.4229 40.0179L52.8482 48.4433L49.5138 51.7777L41.0884 43.3523Z" fill="#D9D9D9"/>
<path d="M4 4L6.67917 13.362L10.2678 9.77342L13.8564 6.18481L4 4Z" fill="#D9D9D9"/>
<path d="M9.37206 40.306L12.7065 43.6404L4.2811 52.0658L0.946675 48.7314L9.37206 40.306Z" fill="#D9D9D9"/>
<path d="M28.2686 21.0977L21.5654 27.7998L19.6279 25.8623L17.8623 27.6279L19.7998 29.5654L14.1904 35.1768L17.7256 38.7119L23.335 33.1006L25.0381 34.8037L17.1777 42.665L10 35.4873L26.3291 19.1572L28.2686 21.0977ZM46.665 13.1777L26.8037 33.0381L25.1006 31.335L31.8037 24.6328L33.4902 26.3184L35.2559 24.5537L33.5693 22.8672L43.1816 13.2559L39.6465 9.7207L30.0342 19.332L28.0947 17.3926L39.4873 6L48.8486 3.32129L46.665 13.1777Z" fill="#D9D9D9"/>
</svg>
